<svg xmlns="http://www.w3.org/2000/svg" viewBox="0 0 1024 1024" width="1024" height="1024"><defs><pattern id="tx" width="15" height="15" patternUnits="userSpaceOnUse"><circle cx="3.6" cy="3.6" r="2.6" fill="#1A1A1A" opacity=".15"/><circle cx="11.1" cy="11.1" r="2.6" fill="#1A1A1A" opacity=".15"/><circle cx="3.6" cy="11.1" r="1.1" fill="#fff" opacity=".22"/><circle cx="11.1" cy="3.6" r="1.1" fill="#fff" opacity=".22"/></pattern><clipPath id="bodyclip"><path d="M 151.0 493.0 C 151.0 493.0 150.0 544.0 150.0 544.0 C 150.0 544.0 171.7 558.7 182.2 566.4 C 192.7 574.1 203.3 581.8 213.1 590.5 C 222.9 599.1 231.0 609.9 241.0 618.3 C 251.0 626.8 273.0 641.0 273.0 641.0 C 273.0 641.0 289.0 686.0 289.0 686.0 C 289.0 686.0 313.7 701.5 324.7 710.9 C 335.7 720.2 355.0 742.0 355.0 742.0 C 355.0 742.0 354.0 764.4 352.4 775.4 C 350.7 786.4 345.0 808.0 345.0 808.0 C 345.0 808.0 361.0 819.0 361.0 819.0 C 361.0 819.0 394.0 816.0 394.0 816.0 C 394.0 816.0 431.0 762.0 431.0 762.0 C 431.0 762.0 465.0 752.0 465.0 752.0 C 465.0 752.0 489.5 750.5 501.5 751.9 C 513.5 753.2 537.0 760.0 537.0 760.0 C 537.0 760.0 564.0 803.0 564.0 803.0 C 564.0 803.0 591.6 799.1 605.3 799.6 C 618.9 800.1 632.4 804.5 646.0 806.1 C 659.7 807.6 687.0 809.0 687.0 809.0 C 687.0 809.0 740.0 800.0 740.0 800.0 C 740.0 800.0 791.0 793.0 791.0 793.0 C 791.0 793.0 786.0 748.0 786.0 748.0 C 786.0 748.0 758.0 730.0 758.0 730.0 C 758.0 730.0 742.0 668.0 742.0 668.0 C 742.0 668.0 740.0 626.0 740.0 626.0 C 740.0 626.0 784.0 584.0 784.0 584.0 C 784.0 584.0 769.4 565.4 764.0 555.0 C 758.7 544.7 752.0 522.0 752.0 522.0 C 752.0 522.0 739.8 499.4 734.4 487.7 C 729.1 476.1 720.0 452.0 720.0 452.0 C 720.0 452.0 695.9 442.9 684.3 437.6 C 672.6 432.2 650.0 420.0 650.0 420.0 C 650.0 420.0 626.8 412.3 615.1 408.7 C 603.4 405.0 580.0 398.0 580.0 398.0 C 580.0 398.0 543.0 373.0 543.0 373.0 C 543.0 373.0 500.0 351.0 500.0 351.0 C 500.0 351.0 476.0 359.0 464.3 363.8 C 452.6 368.6 430.0 380.0 430.0 380.0 C 430.0 380.0 402.8 385.5 389.5 389.2 C 376.2 392.9 350.0 402.0 350.0 402.0 C 350.0 402.0 322.6 410.1 309.3 415.1 C 295.9 420.1 270.0 432.0 270.0 432.0 C 270.0 432.0 247.6 445.8 235.6 450.8 C 223.6 455.8 198.0 462.0 198.0 462.0 C 198.0 462.0 151.0 493.0 151.0 493.0 Z"/></clipPath></defs><ellipse cx="500" cy="862" rx="400" ry="30" fill="#1A1A1A" opacity=".1"/><g id="crabigator"><g id="ground" stroke-linejoin="round" stroke-linecap="round"><path d="M 120.0 810.0 C 120.0 810.0 151.1 808.1 166.7 808.4 C 182.2 808.6 197.9 811.9 213.5 811.5 C 229.0 811.1 260.0 806.0 260.0 806.0 C 260.0 806.0 289.3 799.4 304.1 798.5 C 318.9 797.6 333.8 800.0 348.6 800.5 C 363.4 800.9 393.0 801.0 393.0 801.0 C 393.0 801.0 423.0 814.0 423.0 814.0 C 423.0 814.0 451.6 807.9 466.0 806.7 C 480.5 805.5 495.3 807.9 509.8 807.1 C 524.3 806.3 553.0 802.0 553.0 802.0 C 553.0 802.0 578.3 803.8 591.0 804.6 C 603.7 805.4 629.0 807.0 629.0 807.0 C 629.0 807.0 658.3 808.1 672.8 807.6 C 687.4 807.1 701.9 805.5 716.4 804.2 C 731.0 802.9 760.0 800.0 760.0 800.0 C 760.0 800.0 791.1 801.1 806.7 800.9 C 822.3 800.6 837.9 797.9 853.5 798.5 C 869.0 799.0 900.0 804.0 900.0 804.0" fill="none" stroke="#1A1A1A" stroke-width="22" stroke-linecap="round" stroke-linejoin="round"/></g><g id="body" stroke-linejoin="round" stroke-linecap="round"><path d="M 151.0 493.0 C 151.0 493.0 150.0 544.0 150.0 544.0 C 150.0 544.0 171.7 558.7 182.2 566.4 C 192.7 574.1 203.3 581.8 213.1 590.5 C 222.9 599.1 231.0 609.9 241.0 618.3 C 251.0 626.8 273.0 641.0 273.0 641.0 C 273.0 641.0 289.0 686.0 289.0 686.0 C 289.0 686.0 313.7 701.5 324.7 710.9 C 335.7 720.2 355.0 742.0 355.0 742.0 C 355.0 742.0 354.0 764.4 352.4 775.4 C 350.7 786.4 345.0 808.0 345.0 808.0 C 345.0 808.0 361.0 819.0 361.0 819.0 C 361.0 819.0 394.0 816.0 394.0 816.0 C 394.0 816.0 431.0 762.0 431.0 762.0 C 431.0 762.0 465.0 752.0 465.0 752.0 C 465.0 752.0 489.5 750.5 501.5 751.9 C 513.5 753.2 537.0 760.0 537.0 760.0 C 537.0 760.0 564.0 803.0 564.0 803.0 C 564.0 803.0 591.6 799.1 605.3 799.6 C 618.9 800.1 632.4 804.5 646.0 806.1 C 659.7 807.6 687.0 809.0 687.0 809.0 C 687.0 809.0 740.0 800.0 740.0 800.0 C 740.0 800.0 791.0 793.0 791.0 793.0 C 791.0 793.0 786.0 748.0 786.0 748.0 C 786.0 748.0 758.0 730.0 758.0 730.0 C 758.0 730.0 742.0 668.0 742.0 668.0 C 742.0 668.0 740.0 626.0 740.0 626.0 C 740.0 626.0 784.0 584.0 784.0 584.0 C 784.0 584.0 769.4 565.4 764.0 555.0 C 758.7 544.7 752.0 522.0 752.0 522.0 C 752.0 522.0 739.8 499.4 734.4 487.7 C 729.1 476.1 720.0 452.0 720.0 452.0 C 720.0 452.0 695.9 442.9 684.3 437.6 C 672.6 432.2 650.0 420.0 650.0 420.0 C 650.0 420.0 626.8 412.3 615.1 408.7 C 603.4 405.0 580.0 398.0 580.0 398.0 C 580.0 398.0 543.0 373.0 543.0 373.0 C 543.0 373.0 500.0 351.0 500.0 351.0 C 500.0 351.0 476.0 359.0 464.3 363.8 C 452.6 368.6 430.0 380.0 430.0 380.0 C 430.0 380.0 402.8 385.5 389.5 389.2 C 376.2 392.9 350.0 402.0 350.0 402.0 C 350.0 402.0 322.6 410.1 309.3 415.1 C 295.9 420.1 270.0 432.0 270.0 432.0 C 270.0 432.0 247.6 445.8 235.6 450.8 C 223.6 455.8 198.0 462.0 198.0 462.0 C 198.0 462.0 151.0 493.0 151.0 493.0 Z" transform="translate(4.5 5.5)" fill="#1A1A1A" stroke="#1A1A1A" stroke-width="30"/><path d="M 151.0 493.0 C 151.0 493.0 150.0 544.0 150.0 544.0 C 150.0 544.0 171.7 558.7 182.2 566.4 C 192.7 574.1 203.3 581.8 213.1 590.5 C 222.9 599.1 231.0 609.9 241.0 618.3 C 251.0 626.8 273.0 641.0 273.0 641.0 C 273.0 641.0 289.0 686.0 289.0 686.0 C 289.0 686.0 313.7 701.5 324.7 710.9 C 335.7 720.2 355.0 742.0 355.0 742.0 C 355.0 742.0 354.0 764.4 352.4 775.4 C 350.7 786.4 345.0 808.0 345.0 808.0 C 345.0 808.0 361.0 819.0 361.0 819.0 C 361.0 819.0 394.0 816.0 394.0 816.0 C 394.0 816.0 431.0 762.0 431.0 762.0 C 431.0 762.0 465.0 752.0 465.0 752.0 C 465.0 752.0 489.5 750.5 501.5 751.9 C 513.5 753.2 537.0 760.0 537.0 760.0 C 537.0 760.0 564.0 803.0 564.0 803.0 C 564.0 803.0 591.6 799.1 605.3 799.6 C 618.9 800.1 632.4 804.5 646.0 806.1 C 659.7 807.6 687.0 809.0 687.0 809.0 C 687.0 809.0 740.0 800.0 740.0 800.0 C 740.0 800.0 791.0 793.0 791.0 793.0 C 791.0 793.0 786.0 748.0 786.0 748.0 C 786.0 748.0 758.0 730.0 758.0 730.0 C 758.0 730.0 742.0 668.0 742.0 668.0 C 742.0 668.0 740.0 626.0 740.0 626.0 C 740.0 626.0 784.0 584.0 784.0 584.0 C 784.0 584.0 769.4 565.4 764.0 555.0 C 758.7 544.7 752.0 522.0 752.0 522.0 C 752.0 522.0 739.8 499.4 734.4 487.7 C 729.1 476.1 720.0 452.0 720.0 452.0 C 720.0 452.0 695.9 442.9 684.3 437.6 C 672.6 432.2 650.0 420.0 650.0 420.0 C 650.0 420.0 626.8 412.3 615.1 408.7 C 603.4 405.0 580.0 398.0 580.0 398.0 C 580.0 398.0 543.0 373.0 543.0 373.0 C 543.0 373.0 500.0 351.0 500.0 351.0 C 500.0 351.0 476.0 359.0 464.3 363.8 C 452.6 368.6 430.0 380.0 430.0 380.0 C 430.0 380.0 402.8 385.5 389.5 389.2 C 376.2 392.9 350.0 402.0 350.0 402.0 C 350.0 402.0 322.6 410.1 309.3 415.1 C 295.9 420.1 270.0 432.0 270.0 432.0 C 270.0 432.0 247.6 445.8 235.6 450.8 C 223.6 455.8 198.0 462.0 198.0 462.0 C 198.0 462.0 151.0 493.0 151.0 493.0 Z" fill="#F5372B"/><path d="M 151.0 493.0 C 151.0 493.0 150.0 544.0 150.0 544.0 C 150.0 544.0 171.7 558.7 182.2 566.4 C 192.7 574.1 203.3 581.8 213.1 590.5 C 222.9 599.1 231.0 609.9 241.0 618.3 C 251.0 626.8 273.0 641.0 273.0 641.0 C 273.0 641.0 289.0 686.0 289.0 686.0 C 289.0 686.0 313.7 701.5 324.7 710.9 C 335.7 720.2 355.0 742.0 355.0 742.0 C 355.0 742.0 354.0 764.4 352.4 775.4 C 350.7 786.4 345.0 808.0 345.0 808.0 C 345.0 808.0 361.0 819.0 361.0 819.0 C 361.0 819.0 394.0 816.0 394.0 816.0 C 394.0 816.0 431.0 762.0 431.0 762.0 C 431.0 762.0 465.0 752.0 465.0 752.0 C 465.0 752.0 489.5 750.5 501.5 751.9 C 513.5 753.2 537.0 760.0 537.0 760.0 C 537.0 760.0 564.0 803.0 564.0 803.0 C 564.0 803.0 591.6 799.1 605.3 799.6 C 618.9 800.1 632.4 804.5 646.0 806.1 C 659.7 807.6 687.0 809.0 687.0 809.0 C 687.0 809.0 740.0 800.0 740.0 800.0 C 740.0 800.0 791.0 793.0 791.0 793.0 C 791.0 793.0 786.0 748.0 786.0 748.0 C 786.0 748.0 758.0 730.0 758.0 730.0 C 758.0 730.0 742.0 668.0 742.0 668.0 C 742.0 668.0 740.0 626.0 740.0 626.0 C 740.0 626.0 784.0 584.0 784.0 584.0 C 784.0 584.0 769.4 565.4 764.0 555.0 C 758.7 544.7 752.0 522.0 752.0 522.0 C 752.0 522.0 739.8 499.4 734.4 487.7 C 729.1 476.1 720.0 452.0 720.0 452.0 C 720.0 452.0 695.9 442.9 684.3 437.6 C 672.6 432.2 650.0 420.0 650.0 420.0 C 650.0 420.0 626.8 412.3 615.1 408.7 C 603.4 405.0 580.0 398.0 580.0 398.0 C 580.0 398.0 543.0 373.0 543.0 373.0 C 543.0 373.0 500.0 351.0 500.0 351.0 C 500.0 351.0 476.0 359.0 464.3 363.8 C 452.6 368.6 430.0 380.0 430.0 380.0 C 430.0 380.0 402.8 385.5 389.5 389.2 C 376.2 392.9 350.0 402.0 350.0 402.0 C 350.0 402.0 322.6 410.1 309.3 415.1 C 295.9 420.1 270.0 432.0 270.0 432.0 C 270.0 432.0 247.6 445.8 235.6 450.8 C 223.6 455.8 198.0 462.0 198.0 462.0 C 198.0 462.0 151.0 493.0 151.0 493.0 Z" fill="url(#tx)"/></g><g id="carapace" stroke-linejoin="round" stroke-linecap="round"><path d="M 400.0 502.0 C 400.0 502.0 400.3 528.8 399.7 542.1 C 399.0 555.4 396.0 582.0 396.0 582.0 C 396.0 582.0 406.0 605.4 413.2 615.6 C 420.3 625.7 430.9 633.4 438.9 643.0 C 446.9 652.6 461.0 673.0 461.0 673.0 C 461.0 673.0 502.0 638.0 502.0 638.0 C 502.0 638.0 562.0 662.0 562.0 662.0 C 562.0 662.0 605.0 634.0 605.0 634.0 C 605.0 634.0 633.8 628.0 648.4 627.1 C 663.0 626.2 677.8 629.0 692.4 628.5 C 707.0 628.0 736.0 624.0 736.0 624.0 C 736.0 624.0 784.0 584.0 784.0 584.0 C 784.0 584.0 777.0 560.2 771.0 549.7 C 765.0 539.2 748.0 521.0 748.0 521.0 C 748.0 521.0 717.7 517.6 702.7 518.4 C 687.7 519.2 672.9 523.9 658.0 525.6 C 643.0 527.4 613.0 529.0 613.0 529.0 C 613.0 529.0 588.0 577.0 588.0 577.0 C 588.0 577.0 565.5 577.0 554.3 578.0 C 543.2 579.0 521.0 583.0 521.0 583.0 C 521.0 583.0 502.0 560.0 502.0 560.0 C 502.0 560.0 507.3 528.9 510.4 513.4 C 513.5 498.0 518.4 482.8 520.5 467.2 C 522.6 451.5 520.2 435.0 522.9 419.5 C 525.7 404.0 537.0 374.0 537.0 374.0 C 537.0 374.0 500.0 357.0 500.0 357.0 C 500.0 357.0 481.1 379.7 472.6 391.6 C 464.1 403.6 456.9 416.5 449.0 428.8 C 441.1 441.2 433.3 453.7 425.2 465.9 C 417.0 478.1 400.0 502.0 400.0 502.0 Z" transform="translate(4.5 5.5)" fill="#1A1A1A" stroke="#1A1A1A" stroke-width="30"/><path d="M 400.0 502.0 C 400.0 502.0 400.3 528.8 399.7 542.1 C 399.0 555.4 396.0 582.0 396.0 582.0 C 396.0 582.0 406.0 605.4 413.2 615.6 C 420.3 625.7 430.9 633.4 438.9 643.0 C 446.9 652.6 461.0 673.0 461.0 673.0 C 461.0 673.0 502.0 638.0 502.0 638.0 C 502.0 638.0 562.0 662.0 562.0 662.0 C 562.0 662.0 605.0 634.0 605.0 634.0 C 605.0 634.0 633.8 628.0 648.4 627.1 C 663.0 626.2 677.8 629.0 692.4 628.5 C 707.0 628.0 736.0 624.0 736.0 624.0 C 736.0 624.0 784.0 584.0 784.0 584.0 C 784.0 584.0 777.0 560.2 771.0 549.7 C 765.0 539.2 748.0 521.0 748.0 521.0 C 748.0 521.0 717.7 517.6 702.7 518.4 C 687.7 519.2 672.9 523.9 658.0 525.6 C 643.0 527.4 613.0 529.0 613.0 529.0 C 613.0 529.0 588.0 577.0 588.0 577.0 C 588.0 577.0 565.5 577.0 554.3 578.0 C 543.2 579.0 521.0 583.0 521.0 583.0 C 521.0 583.0 502.0 560.0 502.0 560.0 C 502.0 560.0 507.3 528.9 510.4 513.4 C 513.5 498.0 518.4 482.8 520.5 467.2 C 522.6 451.5 520.2 435.0 522.9 419.5 C 525.7 404.0 537.0 374.0 537.0 374.0 C 537.0 374.0 500.0 357.0 500.0 357.0 C 500.0 357.0 481.1 379.7 472.6 391.6 C 464.1 403.6 456.9 416.5 449.0 428.8 C 441.1 441.2 433.3 453.7 425.2 465.9 C 417.0 478.1 400.0 502.0 400.0 502.0 Z" fill="#F5372B"/><path d="M 400.0 502.0 C 400.0 502.0 400.3 528.8 399.7 542.1 C 399.0 555.4 396.0 582.0 396.0 582.0 C 396.0 582.0 406.0 605.4 413.2 615.6 C 420.3 625.7 430.9 633.4 438.9 643.0 C 446.9 652.6 461.0 673.0 461.0 673.0 C 461.0 673.0 502.0 638.0 502.0 638.0 C 502.0 638.0 562.0 662.0 562.0 662.0 C 562.0 662.0 605.0 634.0 605.0 634.0 C 605.0 634.0 633.8 628.0 648.4 627.1 C 663.0 626.2 677.8 629.0 692.4 628.5 C 707.0 628.0 736.0 624.0 736.0 624.0 C 736.0 624.0 784.0 584.0 784.0 584.0 C 784.0 584.0 777.0 560.2 771.0 549.7 C 765.0 539.2 748.0 521.0 748.0 521.0 C 748.0 521.0 717.7 517.6 702.7 518.4 C 687.7 519.2 672.9 523.9 658.0 525.6 C 643.0 527.4 613.0 529.0 613.0 529.0 C 613.0 529.0 588.0 577.0 588.0 577.0 C 588.0 577.0 565.5 577.0 554.3 578.0 C 543.2 579.0 521.0 583.0 521.0 583.0 C 521.0 583.0 502.0 560.0 502.0 560.0 C 502.0 560.0 507.3 528.9 510.4 513.4 C 513.5 498.0 518.4 482.8 520.5 467.2 C 522.6 451.5 520.2 435.0 522.9 419.5 C 525.7 404.0 537.0 374.0 537.0 374.0 C 537.0 374.0 500.0 357.0 500.0 357.0 C 500.0 357.0 481.1 379.7 472.6 391.6 C 464.1 403.6 456.9 416.5 449.0 428.8 C 441.1 441.2 433.3 453.7 425.2 465.9 C 417.0 478.1 400.0 502.0 400.0 502.0 Z" fill="url(#tx)"/><path d="M 416.0 617.0 C 416.0 617.0 443.0 589.0 443.0 589.0 C 443.0 589.0 448.0 553.0 448.0 553.0 C 448.0 553.0 474.0 530.0 474.0 530.0" fill="none" stroke="#1A1A1A" stroke-width="11" stroke-linecap="round" stroke-linejoin="round"/><ellipse cx="491" cy="507" rx="6.1" ry="6.1" fill="#1A1A1A"/></g><g id="shoulder" stroke-linejoin="round" stroke-linecap="round"><path d="M 218.0 458.0 C 218.0 458.0 197.9 470.7 187.7 476.8 C 177.5 483.0 157.0 495.0 157.0 495.0 C 157.0 495.0 155.0 540.0 155.0 540.0 C 155.0 540.0 184.0 543.0 184.0 543.0 C 184.0 543.0 206.1 567.3 215.8 580.5 C 225.4 593.6 242.0 622.0 242.0 622.0 C 242.0 622.0 247.1 596.8 250.1 584.3 C 253.2 571.8 256.2 559.3 260.2 547.1 C 264.2 534.9 274.0 511.0 274.0 511.0 C 274.0 511.0 256.8 491.8 247.4 483.0 C 238.1 474.2 218.0 458.0 218.0 458.0 Z" transform="translate(4.5 5.5)" fill="#1A1A1A" stroke="#1A1A1A" stroke-width="30"/><path d="M 218.0 458.0 C 218.0 458.0 197.9 470.7 187.7 476.8 C 177.5 483.0 157.0 495.0 157.0 495.0 C 157.0 495.0 155.0 540.0 155.0 540.0 C 155.0 540.0 184.0 543.0 184.0 543.0 C 184.0 543.0 206.1 567.3 215.8 580.5 C 225.4 593.6 242.0 622.0 242.0 622.0 C 242.0 622.0 247.1 596.8 250.1 584.3 C 253.2 571.8 256.2 559.3 260.2 547.1 C 264.2 534.9 274.0 511.0 274.0 511.0 C 274.0 511.0 256.8 491.8 247.4 483.0 C 238.1 474.2 218.0 458.0 218.0 458.0 Z" fill="#F5372B"/><path d="M 218.0 458.0 C 218.0 458.0 197.9 470.7 187.7 476.8 C 177.5 483.0 157.0 495.0 157.0 495.0 C 157.0 495.0 155.0 540.0 155.0 540.0 C 155.0 540.0 184.0 543.0 184.0 543.0 C 184.0 543.0 206.1 567.3 215.8 580.5 C 225.4 593.6 242.0 622.0 242.0 622.0 C 242.0 622.0 247.1 596.8 250.1 584.3 C 253.2 571.8 256.2 559.3 260.2 547.1 C 264.2 534.9 274.0 511.0 274.0 511.0 C 274.0 511.0 256.8 491.8 247.4 483.0 C 238.1 474.2 218.0 458.0 218.0 458.0 Z" fill="url(#tx)"/><path d="M 206.0 551.0 C 206.0 551.0 218.0 539.0 218.0 539.0 C 218.0 539.0 206.0 508.0 206.0 508.0 C 206.0 508.0 218.0 492.0 218.0 492.0" fill="none" stroke="#1A1A1A" stroke-width="10" stroke-linecap="round" stroke-linejoin="round"/></g><g id="leg1" stroke-linejoin="round" stroke-linecap="round"><path d="M 677.0 667.0 C 677.0 667.0 675.4 694.3 675.1 708.0 C 674.7 721.6 675.0 749.0 675.0 749.0 C 675.0 749.0 718.0 756.0 718.0 756.0 C 718.0 756.0 734.0 797.0 734.0 797.0 C 734.0 797.0 791.0 792.0 791.0 792.0 C 791.0 792.0 785.0 747.0 785.0 747.0 C 785.0 747.0 758.0 729.0 758.0 729.0 C 758.0 729.0 740.0 667.0 740.0 667.0 C 740.0 667.0 697.0 640.0 697.0 640.0 C 697.0 640.0 677.0 667.0 677.0 667.0 Z" transform="translate(4.5 5.5)" fill="#1A1A1A" stroke="#1A1A1A" stroke-width="30"/><path d="M 677.0 667.0 C 677.0 667.0 675.4 694.3 675.1 708.0 C 674.7 721.6 675.0 749.0 675.0 749.0 C 675.0 749.0 718.0 756.0 718.0 756.0 C 718.0 756.0 734.0 797.0 734.0 797.0 C 734.0 797.0 791.0 792.0 791.0 792.0 C 791.0 792.0 785.0 747.0 785.0 747.0 C 785.0 747.0 758.0 729.0 758.0 729.0 C 758.0 729.0 740.0 667.0 740.0 667.0 C 740.0 667.0 697.0 640.0 697.0 640.0 C 697.0 640.0 677.0 667.0 677.0 667.0 Z" fill="#F5372B"/><path d="M 677.0 667.0 C 677.0 667.0 675.4 694.3 675.1 708.0 C 674.7 721.6 675.0 749.0 675.0 749.0 C 675.0 749.0 718.0 756.0 718.0 756.0 C 718.0 756.0 734.0 797.0 734.0 797.0 C 734.0 797.0 791.0 792.0 791.0 792.0 C 791.0 792.0 785.0 747.0 785.0 747.0 C 785.0 747.0 758.0 729.0 758.0 729.0 C 758.0 729.0 740.0 667.0 740.0 667.0 C 740.0 667.0 697.0 640.0 697.0 640.0 C 697.0 640.0 677.0 667.0 677.0 667.0 Z" fill="url(#tx)"/></g><g id="leg2" stroke-linejoin="round" stroke-linecap="round"><path d="M 590.0 638.0 C 590.0 638.0 567.0 663.0 567.0 663.0 C 567.0 663.0 580.3 685.5 586.2 697.2 C 592.0 708.8 602.0 733.0 602.0 733.0 C 602.0 733.0 645.0 750.0 645.0 750.0 C 645.0 750.0 659.0 798.0 659.0 798.0 C 659.0 798.0 684.0 804.0 684.0 804.0 C 684.0 804.0 700.0 753.0 700.0 753.0 C 700.0 753.0 662.0 723.0 662.0 723.0 C 662.0 723.0 662.8 700.0 662.9 688.5 C 663.1 677.0 663.0 654.0 663.0 654.0 C 663.0 654.0 639.1 646.8 626.9 644.1 C 614.7 641.5 590.0 638.0 590.0 638.0 Z" transform="translate(4.5 5.5)" fill="#1A1A1A" stroke="#1A1A1A" stroke-width="30"/><path d="M 590.0 638.0 C 590.0 638.0 567.0 663.0 567.0 663.0 C 567.0 663.0 580.3 685.5 586.2 697.2 C 592.0 708.8 602.0 733.0 602.0 733.0 C 602.0 733.0 645.0 750.0 645.0 750.0 C 645.0 750.0 659.0 798.0 659.0 798.0 C 659.0 798.0 684.0 804.0 684.0 804.0 C 684.0 804.0 700.0 753.0 700.0 753.0 C 700.0 753.0 662.0 723.0 662.0 723.0 C 662.0 723.0 662.8 700.0 662.9 688.5 C 663.1 677.0 663.0 654.0 663.0 654.0 C 663.0 654.0 639.1 646.8 626.9 644.1 C 614.7 641.5 590.0 638.0 590.0 638.0 Z" fill="#F5372B"/><path d="M 590.0 638.0 C 590.0 638.0 567.0 663.0 567.0 663.0 C 567.0 663.0 580.3 685.5 586.2 697.2 C 592.0 708.8 602.0 733.0 602.0 733.0 C 602.0 733.0 645.0 750.0 645.0 750.0 C 645.0 750.0 659.0 798.0 659.0 798.0 C 659.0 798.0 684.0 804.0 684.0 804.0 C 684.0 804.0 700.0 753.0 700.0 753.0 C 700.0 753.0 662.0 723.0 662.0 723.0 C 662.0 723.0 662.8 700.0 662.9 688.5 C 663.1 677.0 663.0 654.0 663.0 654.0 C 663.0 654.0 639.1 646.8 626.9 644.1 C 614.7 641.5 590.0 638.0 590.0 638.0 Z" fill="url(#tx)"/></g><g id="leg3" stroke-linejoin="round" stroke-linecap="round"><path d="M 469.0 665.0 C 469.0 665.0 468.4 694.0 467.7 708.5 C 467.0 723.0 465.0 752.0 465.0 752.0 C 465.0 752.0 489.2 752.6 501.2 753.9 C 513.2 755.3 537.0 760.0 537.0 760.0 C 537.0 760.0 564.0 803.0 564.0 803.0 C 564.0 803.0 595.5 803.7 611.1 802.8 C 626.8 802.0 658.0 798.0 658.0 798.0 C 658.0 798.0 649.0 750.0 649.0 750.0 C 649.0 750.0 603.0 731.0 603.0 731.0 C 603.0 731.0 594.4 708.5 589.6 697.5 C 584.7 686.5 574.0 665.0 574.0 665.0 C 574.0 665.0 550.0 654.6 537.8 649.8 C 525.6 644.9 501.0 636.0 501.0 636.0 C 501.0 636.0 469.0 665.0 469.0 665.0 Z" transform="translate(4.5 5.5)" fill="#1A1A1A" stroke="#1A1A1A" stroke-width="30"/><path d="M 469.0 665.0 C 469.0 665.0 468.4 694.0 467.7 708.5 C 467.0 723.0 465.0 752.0 465.0 752.0 C 465.0 752.0 489.2 752.6 501.2 753.9 C 513.2 755.3 537.0 760.0 537.0 760.0 C 537.0 760.0 564.0 803.0 564.0 803.0 C 564.0 803.0 595.5 803.7 611.1 802.8 C 626.8 802.0 658.0 798.0 658.0 798.0 C 658.0 798.0 649.0 750.0 649.0 750.0 C 649.0 750.0 603.0 731.0 603.0 731.0 C 603.0 731.0 594.4 708.5 589.6 697.5 C 584.7 686.5 574.0 665.0 574.0 665.0 C 574.0 665.0 550.0 654.6 537.8 649.8 C 525.6 644.9 501.0 636.0 501.0 636.0 C 501.0 636.0 469.0 665.0 469.0 665.0 Z" fill="#F5372B"/><path d="M 469.0 665.0 C 469.0 665.0 468.4 694.0 467.7 708.5 C 467.0 723.0 465.0 752.0 465.0 752.0 C 465.0 752.0 489.2 752.6 501.2 753.9 C 513.2 755.3 537.0 760.0 537.0 760.0 C 537.0 760.0 564.0 803.0 564.0 803.0 C 564.0 803.0 595.5 803.7 611.1 802.8 C 626.8 802.0 658.0 798.0 658.0 798.0 C 658.0 798.0 649.0 750.0 649.0 750.0 C 649.0 750.0 603.0 731.0 603.0 731.0 C 603.0 731.0 594.4 708.5 589.6 697.5 C 584.7 686.5 574.0 665.0 574.0 665.0 C 574.0 665.0 550.0 654.6 537.8 649.8 C 525.6 644.9 501.0 636.0 501.0 636.0 C 501.0 636.0 469.0 665.0 469.0 665.0 Z" fill="url(#tx)"/></g><g id="band1" stroke-linejoin="round" stroke-linecap="round"><path d="M 406.0 503.0 C 406.0 503.0 377.8 512.8 363.3 516.0 C 348.8 519.1 319.0 522.0 319.0 522.0 C 319.0 522.0 275.0 510.0 275.0 510.0 C 275.0 510.0 251.0 555.0 251.0 555.0 C 251.0 555.0 284.3 564.6 301.3 567.1 C 318.3 569.6 353.0 570.0 353.0 570.0 C 353.0 570.0 402.0 546.0 402.0 546.0 C 402.0 546.0 406.0 503.0 406.0 503.0 Z" transform="translate(4.5 5.5)" fill="#1A1A1A" stroke="#1A1A1A" stroke-width="30"/><path d="M 406.0 503.0 C 406.0 503.0 377.8 512.8 363.3 516.0 C 348.8 519.1 319.0 522.0 319.0 522.0 C 319.0 522.0 275.0 510.0 275.0 510.0 C 275.0 510.0 251.0 555.0 251.0 555.0 C 251.0 555.0 284.3 564.6 301.3 567.1 C 318.3 569.6 353.0 570.0 353.0 570.0 C 353.0 570.0 402.0 546.0 402.0 546.0 C 402.0 546.0 406.0 503.0 406.0 503.0 Z" fill="#F5372B"/><path d="M 406.0 503.0 C 406.0 503.0 377.8 512.8 363.3 516.0 C 348.8 519.1 319.0 522.0 319.0 522.0 C 319.0 522.0 275.0 510.0 275.0 510.0 C 275.0 510.0 251.0 555.0 251.0 555.0 C 251.0 555.0 284.3 564.6 301.3 567.1 C 318.3 569.6 353.0 570.0 353.0 570.0 C 353.0 570.0 402.0 546.0 402.0 546.0 C 402.0 546.0 406.0 503.0 406.0 503.0 Z" fill="url(#tx)"/></g><g id="band2" stroke-linejoin="round" stroke-linecap="round"><path d="M 401.0 554.0 C 401.0 554.0 368.8 554.6 352.7 554.8 C 336.5 555.0 320.4 554.9 304.3 555.2 C 288.2 555.6 256.0 557.0 256.0 557.0 C 256.0 557.0 245.0 617.0 245.0 617.0 C 245.0 617.0 293.0 642.0 293.0 642.0 C 293.0 642.0 350.0 637.0 350.0 637.0 C 350.0 637.0 369.8 625.9 379.7 620.3 C 389.5 614.6 409.0 603.0 409.0 603.0 C 409.0 603.0 401.0 554.0 401.0 554.0 Z" transform="translate(4.5 5.5)" fill="#1A1A1A" stroke="#1A1A1A" stroke-width="30"/><path d="M 401.0 554.0 C 401.0 554.0 368.8 554.6 352.7 554.8 C 336.5 555.0 320.4 554.9 304.3 555.2 C 288.2 555.6 256.0 557.0 256.0 557.0 C 256.0 557.0 245.0 617.0 245.0 617.0 C 245.0 617.0 293.0 642.0 293.0 642.0 C 293.0 642.0 350.0 637.0 350.0 637.0 C 350.0 637.0 369.8 625.9 379.7 620.3 C 389.5 614.6 409.0 603.0 409.0 603.0 C 409.0 603.0 401.0 554.0 401.0 554.0 Z" fill="#F5372B"/><path d="M 401.0 554.0 C 401.0 554.0 368.8 554.6 352.7 554.8 C 336.5 555.0 320.4 554.9 304.3 555.2 C 288.2 555.6 256.0 557.0 256.0 557.0 C 256.0 557.0 245.0 617.0 245.0 617.0 C 245.0 617.0 293.0 642.0 293.0 642.0 C 293.0 642.0 350.0 637.0 350.0 637.0 C 350.0 637.0 369.8 625.9 379.7 620.3 C 389.5 614.6 409.0 603.0 409.0 603.0 C 409.0 603.0 401.0 554.0 401.0 554.0 Z" fill="url(#tx)"/></g><g id="band3" stroke-linejoin="round" stroke-linecap="round"><path d="M 447.0 652.0 C 447.0 652.0 408.0 601.0 408.0 601.0 C 408.0 601.0 383.5 615.8 370.0 619.6 C 356.6 623.5 340.8 620.5 327.2 624.2 C 313.7 627.9 289.0 642.0 289.0 642.0 C 289.0 642.0 295.0 684.0 295.0 684.0 C 295.0 684.0 336.0 713.0 336.0 713.0 C 336.0 713.0 398.0 704.0 398.0 704.0 C 398.0 704.0 416.1 688.4 424.3 679.7 C 432.5 671.0 447.0 652.0 447.0 652.0 Z" transform="translate(4.5 5.5)" fill="#1A1A1A" stroke="#1A1A1A" stroke-width="30"/><path d="M 447.0 652.0 C 447.0 652.0 408.0 601.0 408.0 601.0 C 408.0 601.0 383.5 615.8 370.0 619.6 C 356.6 623.5 340.8 620.5 327.2 624.2 C 313.7 627.9 289.0 642.0 289.0 642.0 C 289.0 642.0 295.0 684.0 295.0 684.0 C 295.0 684.0 336.0 713.0 336.0 713.0 C 336.0 713.0 398.0 704.0 398.0 704.0 C 398.0 704.0 416.1 688.4 424.3 679.7 C 432.5 671.0 447.0 652.0 447.0 652.0 Z" fill="#F5372B"/><path d="M 447.0 652.0 C 447.0 652.0 408.0 601.0 408.0 601.0 C 408.0 601.0 383.5 615.8 370.0 619.6 C 356.6 623.5 340.8 620.5 327.2 624.2 C 313.7 627.9 289.0 642.0 289.0 642.0 C 289.0 642.0 295.0 684.0 295.0 684.0 C 295.0 684.0 336.0 713.0 336.0 713.0 C 336.0 713.0 398.0 704.0 398.0 704.0 C 398.0 704.0 416.1 688.4 424.3 679.7 C 432.5 671.0 447.0 652.0 447.0 652.0 Z" fill="url(#tx)"/></g><g id="band4" stroke-linejoin="round" stroke-linecap="round"><path d="M 463.0 672.0 C 463.0 672.0 443.0 658.0 443.0 658.0 C 443.0 658.0 396.0 700.0 396.0 700.0 C 396.0 700.0 341.0 719.0 341.0 719.0 C 341.0 719.0 367.0 741.0 367.0 741.0 C 367.0 741.0 421.0 738.0 421.0 738.0 C 421.0 738.0 459.0 709.0 459.0 709.0 C 459.0 709.0 463.0 672.0 463.0 672.0 Z" transform="translate(4.5 5.5)" fill="#1A1A1A" stroke="#1A1A1A" stroke-width="30"/><path d="M 463.0 672.0 C 463.0 672.0 443.0 658.0 443.0 658.0 C 443.0 658.0 396.0 700.0 396.0 700.0 C 396.0 700.0 341.0 719.0 341.0 719.0 C 341.0 719.0 367.0 741.0 367.0 741.0 C 367.0 741.0 421.0 738.0 421.0 738.0 C 421.0 738.0 459.0 709.0 459.0 709.0 C 459.0 709.0 463.0 672.0 463.0 672.0 Z" fill="#F5372B"/><path d="M 463.0 672.0 C 463.0 672.0 443.0 658.0 443.0 658.0 C 443.0 658.0 396.0 700.0 396.0 700.0 C 396.0 700.0 341.0 719.0 341.0 719.0 C 341.0 719.0 367.0 741.0 367.0 741.0 C 367.0 741.0 421.0 738.0 421.0 738.0 C 421.0 738.0 459.0 709.0 459.0 709.0 C 459.0 709.0 463.0 672.0 463.0 672.0 Z" fill="url(#tx)"/></g><g id="band5" stroke-linejoin="round" stroke-linecap="round"><path d="M 418.0 737.0 C 418.0 737.0 364.0 740.0 364.0 740.0 C 364.0 740.0 357.1 763.2 355.4 775.0 C 353.8 786.8 354.0 811.0 354.0 811.0 C 354.0 811.0 394.0 811.0 394.0 811.0 C 394.0 811.0 431.0 762.0 431.0 762.0 C 431.0 762.0 418.0 737.0 418.0 737.0 Z" transform="translate(4.5 5.5)" fill="#1A1A1A" stroke="#1A1A1A" stroke-width="30"/><path d="M 418.0 737.0 C 418.0 737.0 364.0 740.0 364.0 740.0 C 364.0 740.0 357.1 763.2 355.4 775.0 C 353.8 786.8 354.0 811.0 354.0 811.0 C 354.0 811.0 394.0 811.0 394.0 811.0 C 394.0 811.0 431.0 762.0 431.0 762.0 C 431.0 762.0 418.0 737.0 418.0 737.0 Z" fill="#F5372B"/><path d="M 418.0 737.0 C 418.0 737.0 364.0 740.0 364.0 740.0 C 364.0 740.0 357.1 763.2 355.4 775.0 C 353.8 786.8 354.0 811.0 354.0 811.0 C 354.0 811.0 394.0 811.0 394.0 811.0 C 394.0 811.0 431.0 762.0 431.0 762.0 C 431.0 762.0 418.0 737.0 418.0 737.0 Z" fill="url(#tx)"/></g><g id="tab" stroke-linejoin="round" stroke-linecap="round"><path d="M 522.0 503.0 C 522.0 503.0 518.3 525.9 514.9 536.9 C 511.6 547.9 502.0 569.0 502.0 569.0 C 502.0 569.0 541.0 595.0 541.0 595.0 C 541.0 595.0 591.0 577.0 591.0 577.0 C 591.0 577.0 612.0 530.0 612.0 530.0 C 612.0 530.0 581.3 523.2 566.3 518.7 C 551.3 514.2 522.0 503.0 522.0 503.0 Z" transform="translate(4.5 5.5)" fill="#1A1A1A" stroke="#1A1A1A" stroke-width="30"/><path d="M 522.0 503.0 C 522.0 503.0 518.3 525.9 514.9 536.9 C 511.6 547.9 502.0 569.0 502.0 569.0 C 502.0 569.0 541.0 595.0 541.0 595.0 C 541.0 595.0 591.0 577.0 591.0 577.0 C 591.0 577.0 612.0 530.0 612.0 530.0 C 612.0 530.0 581.3 523.2 566.3 518.7 C 551.3 514.2 522.0 503.0 522.0 503.0 Z" fill="#FFA694"/><path d="M 522.0 503.0 C 522.0 503.0 518.3 525.9 514.9 536.9 C 511.6 547.9 502.0 569.0 502.0 569.0 C 502.0 569.0 541.0 595.0 541.0 595.0 C 541.0 595.0 591.0 577.0 591.0 577.0 C 591.0 577.0 612.0 530.0 612.0 530.0 C 612.0 530.0 581.3 523.2 566.3 518.7 C 551.3 514.2 522.0 503.0 522.0 503.0 Z" fill="url(#tx)"/></g><g id="boulder" stroke-linejoin="round" stroke-linecap="round"><path d="M 101.0 608.0 C 101.0 608.0 81.0 633.0 81.0 633.0 C 81.0 633.0 76.8 664.3 76.8 680.0 C 76.8 695.7 81.0 727.0 81.0 727.0 C 81.0 727.0 101.2 750.6 109.1 763.8 C 116.9 776.9 128.0 806.0 128.0 806.0 C 128.0 806.0 172.0 836.0 172.0 836.0 C 172.0 836.0 232.0 844.0 232.0 844.0 C 232.0 844.0 258.1 835.4 271.4 834.1 C 284.7 832.8 312.0 836.0 312.0 836.0 C 312.0 836.0 331.8 823.5 340.5 815.8 C 349.2 808.2 364.0 790.0 364.0 790.0 C 364.0 790.0 362.0 737.0 362.0 737.0 C 362.0 737.0 337.1 720.6 325.1 711.7 C 313.1 702.9 290.0 684.0 290.0 684.0 C 290.0 684.0 292.0 644.0 292.0 644.0 C 292.0 644.0 243.0 626.0 243.0 626.0 C 243.0 626.0 217.0 582.0 217.0 582.0 C 217.0 582.0 191.1 587.1 178.3 590.3 C 165.4 593.5 153.0 598.3 140.1 601.3 C 127.2 604.2 101.0 608.0 101.0 608.0 Z" transform="translate(4.5 5.5)" fill="#1A1A1A" stroke="#1A1A1A" stroke-width="30"/><path d="M 101.0 608.0 C 101.0 608.0 81.0 633.0 81.0 633.0 C 81.0 633.0 76.8 664.3 76.8 680.0 C 76.8 695.7 81.0 727.0 81.0 727.0 C 81.0 727.0 101.2 750.6 109.1 763.8 C 116.9 776.9 128.0 806.0 128.0 806.0 C 128.0 806.0 172.0 836.0 172.0 836.0 C 172.0 836.0 232.0 844.0 232.0 844.0 C 232.0 844.0 258.1 835.4 271.4 834.1 C 284.7 832.8 312.0 836.0 312.0 836.0 C 312.0 836.0 331.8 823.5 340.5 815.8 C 349.2 808.2 364.0 790.0 364.0 790.0 C 364.0 790.0 362.0 737.0 362.0 737.0 C 362.0 737.0 337.1 720.6 325.1 711.7 C 313.1 702.9 290.0 684.0 290.0 684.0 C 290.0 684.0 292.0 644.0 292.0 644.0 C 292.0 644.0 243.0 626.0 243.0 626.0 C 243.0 626.0 217.0 582.0 217.0 582.0 C 217.0 582.0 191.1 587.1 178.3 590.3 C 165.4 593.5 153.0 598.3 140.1 601.3 C 127.2 604.2 101.0 608.0 101.0 608.0 Z" fill="#FFA694"/><path d="M 101.0 608.0 C 101.0 608.0 81.0 633.0 81.0 633.0 C 81.0 633.0 76.8 664.3 76.8 680.0 C 76.8 695.7 81.0 727.0 81.0 727.0 C 81.0 727.0 101.2 750.6 109.1 763.8 C 116.9 776.9 128.0 806.0 128.0 806.0 C 128.0 806.0 172.0 836.0 172.0 836.0 C 172.0 836.0 232.0 844.0 232.0 844.0 C 232.0 844.0 258.1 835.4 271.4 834.1 C 284.7 832.8 312.0 836.0 312.0 836.0 C 312.0 836.0 331.8 823.5 340.5 815.8 C 349.2 808.2 364.0 790.0 364.0 790.0 C 364.0 790.0 362.0 737.0 362.0 737.0 C 362.0 737.0 337.1 720.6 325.1 711.7 C 313.1 702.9 290.0 684.0 290.0 684.0 C 290.0 684.0 292.0 644.0 292.0 644.0 C 292.0 644.0 243.0 626.0 243.0 626.0 C 243.0 626.0 217.0 582.0 217.0 582.0 C 217.0 582.0 191.1 587.1 178.3 590.3 C 165.4 593.5 153.0 598.3 140.1 601.3 C 127.2 604.2 101.0 608.0 101.0 608.0 Z" fill="url(#tx)"/><path d="M 170.0 647.0 C 170.0 647.0 191.0 688.0 191.0 688.0 C 191.0 688.0 225.8 681.3 243.3 680.8 C 260.8 680.3 296.0 685.0 296.0 685.0 C 296.0 685.0 337.0 712.0 337.0 712.0" fill="none" stroke="#1A1A1A" stroke-width="16" stroke-linecap="round" stroke-linejoin="round"/></g><g id="plate" stroke-linejoin="round" stroke-linecap="round"><path d="M 206.0 572.0 C 206.0 572.0 188.0 541.0 188.0 541.0 C 188.0 541.0 162.6 551.6 149.5 555.1 C 136.3 558.6 109.0 562.0 109.0 562.0 C 109.0 562.0 104.0 597.0 104.0 597.0 C 104.0 597.0 137.4 586.1 154.4 581.9 C 171.4 577.7 206.0 572.0 206.0 572.0 Z" transform="translate(4.5 5.5)" fill="#1A1A1A" stroke="#1A1A1A" stroke-width="30"/><path d="M 206.0 572.0 C 206.0 572.0 188.0 541.0 188.0 541.0 C 188.0 541.0 162.6 551.6 149.5 555.1 C 136.3 558.6 109.0 562.0 109.0 562.0 C 109.0 562.0 104.0 597.0 104.0 597.0 C 104.0 597.0 137.4 586.1 154.4 581.9 C 171.4 577.7 206.0 572.0 206.0 572.0 Z" fill="#FFA694"/><path d="M 206.0 572.0 C 206.0 572.0 188.0 541.0 188.0 541.0 C 188.0 541.0 162.6 551.6 149.5 555.1 C 136.3 558.6 109.0 562.0 109.0 562.0 C 109.0 562.0 104.0 597.0 104.0 597.0 C 104.0 597.0 137.4 586.1 154.4 581.9 C 171.4 577.7 206.0 572.0 206.0 572.0 Z" fill="url(#tx)"/></g><g id="head" stroke-linejoin="round" stroke-linecap="round"><path d="M 282.0 127.0 C 282.0 127.0 261.8 140.6 253.0 148.8 C 244.2 157.0 229.0 176.0 229.0 176.0 C 229.0 176.0 228.0 208.1 225.3 223.8 C 222.7 239.5 215.5 254.5 213.0 270.3 C 210.5 286.0 212.2 302.4 210.1 318.2 C 207.9 334.0 203.4 349.4 200.2 365.1 C 197.0 380.7 191.0 412.0 191.0 412.0 C 191.0 412.0 209.0 444.1 219.5 459.1 C 230.0 474.1 254.0 502.0 254.0 502.0 C 254.0 502.0 279.2 505.5 291.2 509.2 C 303.2 512.9 326.0 524.0 326.0 524.0 C 326.0 524.0 358.6 517.4 374.4 512.6 C 390.3 507.7 421.0 495.0 421.0 495.0 C 421.0 495.0 439.2 473.3 447.9 462.2 C 456.5 451.0 473.0 428.0 473.0 428.0 C 473.0 428.0 476.9 400.8 481.3 387.9 C 485.8 375.1 495.4 363.8 499.7 350.9 C 504.0 338.0 503.0 323.6 506.9 310.6 C 510.9 297.6 519.0 285.8 523.2 272.9 C 527.4 260.0 532.0 233.0 532.0 233.0 C 532.0 233.0 518.7 212.9 512.6 202.5 C 506.4 192.2 495.0 171.0 495.0 171.0 C 495.0 171.0 442.0 142.0 442.0 142.0 C 442.0 142.0 388.0 156.0 388.0 156.0 C 388.0 156.0 381.0 177.7 376.4 188.1 C 371.7 198.4 360.0 218.0 360.0 218.0 C 360.0 218.0 351.1 197.4 346.8 187.1 C 342.5 176.8 334.0 156.0 334.0 156.0 C 334.0 156.0 282.0 127.0 282.0 127.0 Z" transform="translate(4.5 5.5)" fill="#1A1A1A" stroke="#1A1A1A" stroke-width="30"/><path d="M 282.0 127.0 C 282.0 127.0 261.8 140.6 253.0 148.8 C 244.2 157.0 229.0 176.0 229.0 176.0 C 229.0 176.0 228.0 208.1 225.3 223.8 C 222.7 239.5 215.5 254.5 213.0 270.3 C 210.5 286.0 212.2 302.4 210.1 318.2 C 207.9 334.0 203.4 349.4 200.2 365.1 C 197.0 380.7 191.0 412.0 191.0 412.0 C 191.0 412.0 209.0 444.1 219.5 459.1 C 230.0 474.1 254.0 502.0 254.0 502.0 C 254.0 502.0 279.2 505.5 291.2 509.2 C 303.2 512.9 326.0 524.0 326.0 524.0 C 326.0 524.0 358.6 517.4 374.4 512.6 C 390.3 507.7 421.0 495.0 421.0 495.0 C 421.0 495.0 439.2 473.3 447.9 462.2 C 456.5 451.0 473.0 428.0 473.0 428.0 C 473.0 428.0 476.9 400.8 481.3 387.9 C 485.8 375.1 495.4 363.8 499.7 350.9 C 504.0 338.0 503.0 323.6 506.9 310.6 C 510.9 297.6 519.0 285.8 523.2 272.9 C 527.4 260.0 532.0 233.0 532.0 233.0 C 532.0 233.0 518.7 212.9 512.6 202.5 C 506.4 192.2 495.0 171.0 495.0 171.0 C 495.0 171.0 442.0 142.0 442.0 142.0 C 442.0 142.0 388.0 156.0 388.0 156.0 C 388.0 156.0 381.0 177.7 376.4 188.1 C 371.7 198.4 360.0 218.0 360.0 218.0 C 360.0 218.0 351.1 197.4 346.8 187.1 C 342.5 176.8 334.0 156.0 334.0 156.0 C 334.0 156.0 282.0 127.0 282.0 127.0 Z" fill="#9BDC33"/><path d="M 282.0 127.0 C 282.0 127.0 261.8 140.6 253.0 148.8 C 244.2 157.0 229.0 176.0 229.0 176.0 C 229.0 176.0 228.0 208.1 225.3 223.8 C 222.7 239.5 215.5 254.5 213.0 270.3 C 210.5 286.0 212.2 302.4 210.1 318.2 C 207.9 334.0 203.4 349.4 200.2 365.1 C 197.0 380.7 191.0 412.0 191.0 412.0 C 191.0 412.0 209.0 444.1 219.5 459.1 C 230.0 474.1 254.0 502.0 254.0 502.0 C 254.0 502.0 279.2 505.5 291.2 509.2 C 303.2 512.9 326.0 524.0 326.0 524.0 C 326.0 524.0 358.6 517.4 374.4 512.6 C 390.3 507.7 421.0 495.0 421.0 495.0 C 421.0 495.0 439.2 473.3 447.9 462.2 C 456.5 451.0 473.0 428.0 473.0 428.0 C 473.0 428.0 476.9 400.8 481.3 387.9 C 485.8 375.1 495.4 363.8 499.7 350.9 C 504.0 338.0 503.0 323.6 506.9 310.6 C 510.9 297.6 519.0 285.8 523.2 272.9 C 527.4 260.0 532.0 233.0 532.0 233.0 C 532.0 233.0 518.7 212.9 512.6 202.5 C 506.4 192.2 495.0 171.0 495.0 171.0 C 495.0 171.0 442.0 142.0 442.0 142.0 C 442.0 142.0 388.0 156.0 388.0 156.0 C 388.0 156.0 381.0 177.7 376.4 188.1 C 371.7 198.4 360.0 218.0 360.0 218.0 C 360.0 218.0 351.1 197.4 346.8 187.1 C 342.5 176.8 334.0 156.0 334.0 156.0 C 334.0 156.0 282.0 127.0 282.0 127.0 Z" fill="url(#tx)"/><g id="eyes"><path d="M 282.0 209.0 C 282.0 209.0 246.0 231.0 246.0 231.0 C 246.0 231.0 245.3 249.0 245.7 258.0 C 246.0 267.0 248.0 285.0 248.0 285.0 C 248.0 285.0 274.0 303.0 274.0 303.0 C 274.0 303.0 302.0 273.0 302.0 273.0 C 302.0 273.0 302.0 238.0 302.0 238.0 C 302.0 238.0 282.0 209.0 282.0 209.0 Z" fill="#1A1A1A"/><path d="M 426.0 218.0 C 426.0 218.0 385.0 245.0 385.0 245.0 C 385.0 245.0 376.0 283.0 376.0 283.0 C 376.0 283.0 395.0 317.0 395.0 317.0 C 395.0 317.0 430.0 312.0 430.0 312.0 C 430.0 312.0 438.7 297.2 442.0 289.4 C 445.3 281.5 450.0 265.0 450.0 265.0 C 450.0 265.0 443.9 248.4 439.9 240.5 C 435.9 232.7 426.0 218.0 426.0 218.0 Z" fill="#1A1A1A"/></g><path d="M 250.0 404.0 C 250.0 404.0 278.0 387.0 278.0 387.0 C 278.0 387.0 291.0 388.0 291.0 388.0 C 291.0 388.0 312.0 402.0 312.0 402.0 C 312.0 402.0 352.0 391.0 352.0 391.0 C 352.0 391.0 390.0 414.0 390.0 414.0" fill="none" stroke="#1A1A1A" stroke-width="12" stroke-linecap="round" stroke-linejoin="round"/><ellipse cx="284" cy="423" rx="6.7" ry="6.7" fill="#1A1A1A"/><ellipse cx="355" cy="427" rx="7.0" ry="7.0" fill="#1A1A1A"/></g><g transform="translate(44 -8)"><g id="claw" stroke-linejoin="round" stroke-linecap="round"><path d="M 845.0 286.0 C 845.0 286.0 813.0 250.0 813.0 250.0 C 813.0 250.0 770.0 260.0 770.0 260.0 C 770.0 260.0 767.4 282.9 768.0 294.2 C 768.7 305.6 774.0 328.0 774.0 328.0 C 774.0 328.0 742.6 334.1 727.3 338.4 C 711.9 342.7 682.0 354.0 682.0 354.0 C 682.0 354.0 645.0 400.0 645.0 400.0 C 645.0 400.0 634.0 361.0 634.0 361.0 C 634.0 361.0 662.0 325.0 662.0 325.0 C 662.0 325.0 652.0 274.0 652.0 274.0 C 652.0 274.0 626.4 282.9 613.2 285.7 C 600.0 288.6 573.0 291.0 573.0 291.0 C 573.0 291.0 569.5 314.3 567.0 325.8 C 564.5 337.3 558.0 360.0 558.0 360.0 C 558.0 360.0 515.0 410.0 515.0 410.0 C 515.0 410.0 518.7 441.4 521.6 456.9 C 524.4 472.4 532.0 503.0 532.0 503.0 C 532.0 503.0 560.9 510.8 575.0 515.4 C 589.2 520.1 617.0 531.0 617.0 531.0 C 617.0 531.0 646.5 525.6 661.5 524.7 C 676.4 523.9 691.7 526.9 706.6 526.0 C 721.5 525.0 751.0 519.0 751.0 519.0 C 751.0 519.0 774.3 501.5 783.2 490.3 C 792.1 479.1 795.6 463.1 804.4 451.8 C 813.3 440.5 826.0 432.8 836.1 422.7 C 846.2 412.5 865.0 391.0 865.0 391.0 C 865.0 391.0 861.8 355.3 858.5 337.8 C 855.1 320.3 845.0 286.0 845.0 286.0 Z" transform="translate(4.5 5.5)" fill="#1A1A1A" stroke="#1A1A1A" stroke-width="30"/><path d="M 845.0 286.0 C 845.0 286.0 813.0 250.0 813.0 250.0 C 813.0 250.0 770.0 260.0 770.0 260.0 C 770.0 260.0 767.4 282.9 768.0 294.2 C 768.7 305.6 774.0 328.0 774.0 328.0 C 774.0 328.0 742.6 334.1 727.3 338.4 C 711.9 342.7 682.0 354.0 682.0 354.0 C 682.0 354.0 645.0 400.0 645.0 400.0 C 645.0 400.0 634.0 361.0 634.0 361.0 C 634.0 361.0 662.0 325.0 662.0 325.0 C 662.0 325.0 652.0 274.0 652.0 274.0 C 652.0 274.0 626.4 282.9 613.2 285.7 C 600.0 288.6 573.0 291.0 573.0 291.0 C 573.0 291.0 569.5 314.3 567.0 325.8 C 564.5 337.3 558.0 360.0 558.0 360.0 C 558.0 360.0 515.0 410.0 515.0 410.0 C 515.0 410.0 518.7 441.4 521.6 456.9 C 524.4 472.4 532.0 503.0 532.0 503.0 C 532.0 503.0 560.9 510.8 575.0 515.4 C 589.2 520.1 617.0 531.0 617.0 531.0 C 617.0 531.0 646.5 525.6 661.5 524.7 C 676.4 523.9 691.7 526.9 706.6 526.0 C 721.5 525.0 751.0 519.0 751.0 519.0 C 751.0 519.0 774.3 501.5 783.2 490.3 C 792.1 479.1 795.6 463.1 804.4 451.8 C 813.3 440.5 826.0 432.8 836.1 422.7 C 846.2 412.5 865.0 391.0 865.0 391.0 C 865.0 391.0 861.8 355.3 858.5 337.8 C 855.1 320.3 845.0 286.0 845.0 286.0 Z" fill="#FFA694"/><path d="M 845.0 286.0 C 845.0 286.0 813.0 250.0 813.0 250.0 C 813.0 250.0 770.0 260.0 770.0 260.0 C 770.0 260.0 767.4 282.9 768.0 294.2 C 768.7 305.6 774.0 328.0 774.0 328.0 C 774.0 328.0 742.6 334.1 727.3 338.4 C 711.9 342.7 682.0 354.0 682.0 354.0 C 682.0 354.0 645.0 400.0 645.0 400.0 C 645.0 400.0 634.0 361.0 634.0 361.0 C 634.0 361.0 662.0 325.0 662.0 325.0 C 662.0 325.0 652.0 274.0 652.0 274.0 C 652.0 274.0 626.4 282.9 613.2 285.7 C 600.0 288.6 573.0 291.0 573.0 291.0 C 573.0 291.0 569.5 314.3 567.0 325.8 C 564.5 337.3 558.0 360.0 558.0 360.0 C 558.0 360.0 515.0 410.0 515.0 410.0 C 515.0 410.0 518.7 441.4 521.6 456.9 C 524.4 472.4 532.0 503.0 532.0 503.0 C 532.0 503.0 560.9 510.8 575.0 515.4 C 589.2 520.1 617.0 531.0 617.0 531.0 C 617.0 531.0 646.5 525.6 661.5 524.7 C 676.4 523.9 691.7 526.9 706.6 526.0 C 721.5 525.0 751.0 519.0 751.0 519.0 C 751.0 519.0 774.3 501.5 783.2 490.3 C 792.1 479.1 795.6 463.1 804.4 451.8 C 813.3 440.5 826.0 432.8 836.1 422.7 C 846.2 412.5 865.0 391.0 865.0 391.0 C 865.0 391.0 861.8 355.3 858.5 337.8 C 855.1 320.3 845.0 286.0 845.0 286.0 Z" fill="url(#tx)"/><path d="M 776.0 432.0 C 776.0 432.0 745.0 440.0 745.0 440.0 C 745.0 440.0 706.0 476.0 706.0 476.0 C 706.0 476.0 654.0 473.0 654.0 473.0" fill="none" stroke="#1A1A1A" stroke-width="12" stroke-linecap="round" stroke-linejoin="round"/></g></g></g></svg>